<svg xmlns="http://www.w3.org/2000/svg" version="1.1" xmlns:xlink="http://www.w3.org/1999/xlink" width="1440" height="560" preserveAspectRatio="none" viewBox="0 0 1440 560"><g mask="url(&quot;#SvgjsMask1010&quot;)" fill="none"><path d="M-54.96 357.02L-54.96 357.02" stroke="rgba(61, 52, 206, 1)" stroke-width="1.5"></path><path d="M-54.96 357.02L64.58 361.35" stroke="rgba(61, 52, 206, 1)" stroke-width="1.5"></path><path d="M-54.96 357.02L82.7 509.29" stroke="rgba(61, 52, 206, 1)" stroke-width="1.5"></path><path d="M-54.96 357.02L-62.3 642.44" stroke="rgba(61, 52, 206, 1)" stroke-width="1.5"></path><path d="M-54.96 357.02L199.38 495.48" stroke="rgba(61, 52, 206, 1)" stroke-width="1.5"></path><path d="M-54.96 357.02L249.38 355.3" stroke="rgba(61, 52, 206, 1)" stroke-width="1.5"></path><path d="M-54.96 357.02L94.96 697.51" stroke="rgba(61, 52, 206, 1)" stroke-width="1.5"></path><path d="M-62.3 642.44L-62.3 642.44" stroke="rgba(61, 52, 206, 1)" stroke-width="1.5"></path><path d="M-62.3 642.44L94.96 697.51" stroke="rgba(61, 52, 206, 1)" stroke-width="1.5"></path><path d="M-62.3 642.44L82.7 509.29" stroke="rgba(61, 52, 206, 1)" stroke-width="1.5"></path><path d="M64.58 361.35L64.58 361.35" stroke="rgba(61, 52, 206, 1)" stroke-width="1.5"></path><path d="M64.58 361.35L82.7 509.29" stroke="rgba(61, 52, 206, 1)" stroke-width="1.5"></path><path d="M64.58 361.35L249.38 355.3" stroke="rgba(61, 52, 206, 1)" stroke-width="1.5"></path><path d="M82.7 509.29L82.7 509.29" stroke="rgba(61, 52, 206, 1)" stroke-width="1.5"></path><path d="M82.7 509.29L199.38 495.48" stroke="rgba(61, 52, 206, 1)" stroke-width="1.5"></path><path d="M82.7 509.29L94.96 697.51" stroke="rgba(61, 52, 206, 1)" stroke-width="1.5"></path><path d="M94.96 697.51L94.96 697.51" stroke="rgba(61, 52, 206, 1)" stroke-width="1.5"></path><path d="M94.96 697.51L214.99 678.95" stroke="rgba(61, 52, 206, 1)" stroke-width="1.5"></path><path d="M94.96 697.51L199.38 495.48" stroke="rgba(61, 52, 206, 1)" stroke-width="1.5"></path><path d="M94.96 697.51L403.87 702.49" stroke="rgba(61, 52, 206, 1)" stroke-width="1.5"></path><path d="M94.96 697.51L347.75 494.18" stroke="rgba(61, 52, 206, 1)" stroke-width="1.5"></path><path d="M249.38 355.3L249.38 355.3" stroke="rgba(61, 52, 206, 1)" stroke-width="1.5"></path><path d="M249.38 355.3L385.07 369.83" stroke="rgba(61, 52, 206, 1)" stroke-width="1.5"></path><path d="M249.38 355.3L199.38 495.48" stroke="rgba(61, 52, 206, 1)" stroke-width="1.5"></path><path d="M249.38 355.3L347.75 494.18" stroke="rgba(61, 52, 206, 1)" stroke-width="1.5"></path><path d="M249.38 355.3L82.7 509.29" stroke="rgba(61, 52, 206, 1)" stroke-width="1.5"></path><path d="M249.38 355.3L489.2 347.13" stroke="rgba(61, 52, 206, 1)" stroke-width="1.5"></path><path d="M199.38 495.48L199.38 495.48" stroke="rgba(61, 52, 206, 1)" stroke-width="1.5"></path><path d="M199.38 495.48L347.75 494.18" stroke="rgba(61, 52, 206, 1)" stroke-width="1.5"></path><path d="M214.99 678.95L214.99 678.95" stroke="rgba(61, 52, 206, 1)" stroke-width="1.5"></path><path d="M214.99 678.95L199.38 495.48" stroke="rgba(61, 52, 206, 1)" stroke-width="1.5"></path><path d="M214.99 678.95L403.87 702.49" stroke="rgba(61, 52, 206, 1)" stroke-width="1.5"></path><path d="M385.07 369.83L385.07 369.83" stroke="rgba(61, 52, 206, 1)" stroke-width="1.5"></path><path d="M385.07 369.83L489.2 347.13" stroke="rgba(61, 52, 206, 1)" stroke-width="1.5"></path><path d="M385.07 369.83L347.75 494.18" stroke="rgba(61, 52, 206, 1)" stroke-width="1.5"></path><path d="M347.75 494.18L347.75 494.18" stroke="rgba(61, 52, 206, 1)" stroke-width="1.5"></path><path d="M347.75 494.18L489.2 347.13" stroke="rgba(61, 52, 206, 1)" stroke-width="1.5"></path><path d="M347.75 494.18L403.87 702.49" stroke="rgba(61, 52, 206, 1)" stroke-width="1.5"></path><path d="M347.75 494.18L214.99 678.95" stroke="rgba(61, 52, 206, 1)" stroke-width="1.5"></path><path d="M403.87 702.49L403.87 702.49" stroke="rgba(61, 52, 206, 1)" stroke-width="1.5"></path><path d="M403.87 702.49L556.53 653.17" stroke="rgba(61, 52, 206, 1)" stroke-width="1.5"></path><path d="M403.87 702.49L679.1 706.42" stroke="rgba(61, 52, 206, 1)" stroke-width="1.5"></path><path d="M403.87 702.49L199.38 495.48" stroke="rgba(61, 52, 206, 1)" stroke-width="1.5"></path><path d="M489.2 347.13L489.2 347.13" stroke="rgba(61, 52, 206, 1)" stroke-width="1.5"></path><path d="M489.2 347.13L660.56 371.76" stroke="rgba(61, 52, 206, 1)" stroke-width="1.5"></path><path d="M489.2 347.13L704.3 518.04" stroke="rgba(61, 52, 206, 1)" stroke-width="1.5"></path><path d="M489.2 347.13L556.53 653.17" stroke="rgba(61, 52, 206, 1)" stroke-width="1.5"></path><path d="M556.53 653.17L556.53 653.17" stroke="rgba(61, 52, 206, 1)" stroke-width="1.5"></path><path d="M556.53 653.17L679.1 706.42" stroke="rgba(61, 52, 206, 1)" stroke-width="1.5"></path><path d="M660.56 371.76L660.56 371.76" stroke="rgba(61, 52, 206, 1)" stroke-width="1.5"></path><path d="M660.56 371.76L704.3 518.04" stroke="rgba(61, 52, 206, 1)" stroke-width="1.5"></path><path d="M660.56 371.76L803.26 257.45" stroke="rgba(61, 52, 206, 1)" stroke-width="1.5"></path><path d="M660.56 371.76L848.47 394.04" stroke="rgba(61, 52, 206, 1)" stroke-width="1.5"></path><path d="M704.3 518.04L704.3 518.04" stroke="rgba(61, 52, 206, 1)" stroke-width="1.5"></path><path d="M704.3 518.04L840.83 552.89" stroke="rgba(61, 52, 206, 1)" stroke-width="1.5"></path><path d="M679.1 706.42L679.1 706.42" stroke="rgba(61, 52, 206, 1)" stroke-width="1.5"></path><path d="M679.1 706.42L853.54 710.75" stroke="rgba(61, 52, 206, 1)" stroke-width="1.5"></path><path d="M679.1 706.42L704.3 518.04" stroke="rgba(61, 52, 206, 1)" stroke-width="1.5"></path><path d="M679.1 706.42L840.83 552.89" stroke="rgba(61, 52, 206, 1)" stroke-width="1.5"></path><path d="M679.1 706.42L959.37 532.93" stroke="rgba(61, 52, 206, 1)" stroke-width="1.5"></path><path d="M803.26 257.45L803.26 257.45" stroke="rgba(61, 52, 206, 1)" stroke-width="1.5"></path><path d="M803.26 257.45L848.47 394.04" stroke="rgba(61, 52, 206, 1)" stroke-width="1.5"></path><path d="M803.26 257.45L992.94 246.64" stroke="rgba(61, 52, 206, 1)" stroke-width="1.5"></path><path d="M803.26 257.45L983.17 104.7" stroke="rgba(61, 52, 206, 1)" stroke-width="1.5"></path><path d="M848.47 394.04L848.47 394.04" stroke="rgba(61, 52, 206, 1)" stroke-width="1.5"></path><path d="M848.47 394.04L840.83 552.89" stroke="rgba(61, 52, 206, 1)" stroke-width="1.5"></path><path d="M848.47 394.04L1011.07 372.68" stroke="rgba(61, 52, 206, 1)" stroke-width="1.5"></path><path d="M848.47 394.04L959.37 532.93" stroke="rgba(61, 52, 206, 1)" stroke-width="1.5"></path><path d="M840.83 552.89L840.83 552.89" stroke="rgba(61, 52, 206, 1)" stroke-width="1.5"></path><path d="M840.83 552.89L959.37 532.93" stroke="rgba(61, 52, 206, 1)" stroke-width="1.5"></path><path d="M840.83 552.89L853.54 710.75" stroke="rgba(61, 52, 206, 1)" stroke-width="1.5"></path><path d="M853.54 710.75L853.54 710.75" stroke="rgba(61, 52, 206, 1)" stroke-width="1.5"></path><path d="M853.54 710.75L959.37 532.93" stroke="rgba(61, 52, 206, 1)" stroke-width="1.5"></path><path d="M853.54 710.75L704.3 518.04" stroke="rgba(61, 52, 206, 1)" stroke-width="1.5"></path><path d="M957.53 -106.15L957.53 -106.15" stroke="rgba(61, 52, 206, 1)" stroke-width="1.5"></path><path d="M957.53 -106.15L983.17 104.7" stroke="rgba(61, 52, 206, 1)" stroke-width="1.5"></path><path d="M957.53 -106.15L1159.8 109.56" stroke="rgba(61, 52, 206, 1)" stroke-width="1.5"></path><path d="M957.53 -106.15L992.94 246.64" stroke="rgba(61, 52, 206, 1)" stroke-width="1.5"></path><path d="M957.53 -106.15L1266.91 111.44" stroke="rgba(61, 52, 206, 1)" stroke-width="1.5"></path><path d="M983.17 104.7L983.17 104.7" stroke="rgba(61, 52, 206, 1)" stroke-width="1.5"></path><path d="M983.17 104.7L992.94 246.64" stroke="rgba(61, 52, 206, 1)" stroke-width="1.5"></path><path d="M983.17 104.7L1159.8 109.56" stroke="rgba(61, 52, 206, 1)" stroke-width="1.5"></path><path d="M983.17 104.7L1147.28 229.58" stroke="rgba(61, 52, 206, 1)" stroke-width="1.5"></path><path d="M992.94 246.64L992.94 246.64" stroke="rgba(61, 52, 206, 1)" stroke-width="1.5"></path><path d="M992.94 246.64L1011.07 372.68" stroke="rgba(61, 52, 206, 1)" stroke-width="1.5"></path><path d="M992.94 246.64L1147.28 229.58" stroke="rgba(61, 52, 206, 1)" stroke-width="1.5"></path><path d="M992.94 246.64L1121.42 375.39" stroke="rgba(61, 52, 206, 1)" stroke-width="1.5"></path><path d="M992.94 246.64L848.47 394.04" stroke="rgba(61, 52, 206, 1)" stroke-width="1.5"></path><path d="M1011.07 372.68L1011.07 372.68" stroke="rgba(61, 52, 206, 1)" stroke-width="1.5"></path><path d="M1011.07 372.68L1121.42 375.39" stroke="rgba(61, 52, 206, 1)" stroke-width="1.5"></path><path d="M1011.07 372.68L959.37 532.93" stroke="rgba(61, 52, 206, 1)" stroke-width="1.5"></path><path d="M1011.07 372.68L1132.06 506.03" stroke="rgba(61, 52, 206, 1)" stroke-width="1.5"></path><path d="M959.37 532.93L959.37 532.93" stroke="rgba(61, 52, 206, 1)" stroke-width="1.5"></path><path d="M959.37 532.93L1132.06 506.03" stroke="rgba(61, 52, 206, 1)" stroke-width="1.5"></path><path d="M1159.8 109.56L1159.8 109.56" stroke="rgba(61, 52, 206, 1)" stroke-width="1.5"></path><path d="M1159.8 109.56L1266.91 111.44" stroke="rgba(61, 52, 206, 1)" stroke-width="1.5"></path><path d="M1159.8 109.56L1147.28 229.58" stroke="rgba(61, 52, 206, 1)" stroke-width="1.5"></path><path d="M1159.8 109.56L1242.97 228.67" stroke="rgba(61, 52, 206, 1)" stroke-width="1.5"></path><path d="M1147.28 229.58L1147.28 229.58" stroke="rgba(61, 52, 206, 1)" stroke-width="1.5"></path><path d="M1147.28 229.58L1242.97 228.67" stroke="rgba(61, 52, 206, 1)" stroke-width="1.5"></path><path d="M1147.28 229.58L1121.42 375.39" stroke="rgba(61, 52, 206, 1)" stroke-width="1.5"></path><path d="M1121.42 375.39L1121.42 375.39" stroke="rgba(61, 52, 206, 1)" stroke-width="1.5"></path><path d="M1121.42 375.39L1241.27 386.91" stroke="rgba(61, 52, 206, 1)" stroke-width="1.5"></path><path d="M1121.42 375.39L1132.06 506.03" stroke="rgba(61, 52, 206, 1)" stroke-width="1.5"></path><path d="M1132.06 506.03L1132.06 506.03" stroke="rgba(61, 52, 206, 1)" stroke-width="1.5"></path><path d="M1132.06 506.03L1283.02 489.67" stroke="rgba(61, 52, 206, 1)" stroke-width="1.5"></path><path d="M1132.06 506.03L1241.27 386.91" stroke="rgba(61, 52, 206, 1)" stroke-width="1.5"></path><path d="M1119.55 703.26L1119.55 703.26" stroke="rgba(61, 52, 206, 1)" stroke-width="1.5"></path><path d="M1119.55 703.26L1310.37 654.88" stroke="rgba(61, 52, 206, 1)" stroke-width="1.5"></path><path d="M1119.55 703.26L1132.06 506.03" stroke="rgba(61, 52, 206, 1)" stroke-width="1.5"></path><path d="M1266.91 111.44L1266.91 111.44" stroke="rgba(61, 52, 206, 1)" stroke-width="1.5"></path><path d="M1266.91 111.44L1242.97 228.67" stroke="rgba(61, 52, 206, 1)" stroke-width="1.5"></path><path d="M1266.91 111.44L1147.28 229.58" stroke="rgba(61, 52, 206, 1)" stroke-width="1.5"></path><path d="M1266.91 111.44L1445.75 88.61" stroke="rgba(61, 52, 206, 1)" stroke-width="1.5"></path><path d="M1266.91 111.44L1401.64 232.17" stroke="rgba(61, 52, 206, 1)" stroke-width="1.5"></path><path d="M1266.91 111.44L1406.87 -90.51" stroke="rgba(61, 52, 206, 1)" stroke-width="1.5"></path><path d="M1242.97 228.67L1242.97 228.67" stroke="rgba(61, 52, 206, 1)" stroke-width="1.5"></path><path d="M1242.97 228.67L1241.27 386.91" stroke="rgba(61, 52, 206, 1)" stroke-width="1.5"></path><path d="M1242.97 228.67L1401.64 232.17" stroke="rgba(61, 52, 206, 1)" stroke-width="1.5"></path><path d="M1241.27 386.91L1241.27 386.91" stroke="rgba(61, 52, 206, 1)" stroke-width="1.5"></path><path d="M1241.27 386.91L1283.02 489.67" stroke="rgba(61, 52, 206, 1)" stroke-width="1.5"></path><path d="M1283.02 489.67L1283.02 489.67" stroke="rgba(61, 52, 206, 1)" stroke-width="1.5"></path><path d="M1283.02 489.67L1428.12 532.11" stroke="rgba(61, 52, 206, 1)" stroke-width="1.5"></path><path d="M1283.02 489.67L1310.37 654.88" stroke="rgba(61, 52, 206, 1)" stroke-width="1.5"></path><path d="M1283.02 489.67L1121.42 375.39" stroke="rgba(61, 52, 206, 1)" stroke-width="1.5"></path><path d="M1283.02 489.67L1538.17 496.42" stroke="rgba(61, 52, 206, 1)" stroke-width="1.5"></path><path d="M1310.37 654.88L1310.37 654.88" stroke="rgba(61, 52, 206, 1)" stroke-width="1.5"></path><path d="M1310.37 654.88L1459.09 697.23" stroke="rgba(61, 52, 206, 1)" stroke-width="1.5"></path><path d="M1310.37 654.88L1428.12 532.11" stroke="rgba(61, 52, 206, 1)" stroke-width="1.5"></path><path d="M1310.37 654.88L1132.06 506.03" stroke="rgba(61, 52, 206, 1)" stroke-width="1.5"></path><path d="M1310.37 654.88L1578.7 705.04" stroke="rgba(61, 52, 206, 1)" stroke-width="1.5"></path><path d="M1406.87 -90.51L1406.87 -90.51" stroke="rgba(61, 52, 206, 1)" stroke-width="1.5"></path><path d="M1406.87 -90.51L1445.75 88.61" stroke="rgba(61, 52, 206, 1)" stroke-width="1.5"></path><path d="M1406.87 -90.51L1602.57 -57.24" stroke="rgba(61, 52, 206, 1)" stroke-width="1.5"></path><path d="M1406.87 -90.51L1585.42 45.16" stroke="rgba(61, 52, 206, 1)" stroke-width="1.5"></path><path d="M1445.75 88.61L1445.75 88.61" stroke="rgba(61, 52, 206, 1)" stroke-width="1.5"></path><path d="M1445.75 88.61L1585.42 45.16" stroke="rgba(61, 52, 206, 1)" stroke-width="1.5"></path><path d="M1445.75 88.61L1401.64 232.17" stroke="rgba(61, 52, 206, 1)" stroke-width="1.5"></path><path d="M1401.64 232.17L1401.64 232.17" stroke="rgba(61, 52, 206, 1)" stroke-width="1.5"></path><path d="M1401.64 232.17L1570.54 205.97" stroke="rgba(61, 52, 206, 1)" stroke-width="1.5"></path><path d="M1428.12 532.11L1428.12 532.11" stroke="rgba(61, 52, 206, 1)" stroke-width="1.5"></path><path d="M1428.12 532.11L1538.17 496.42" stroke="rgba(61, 52, 206, 1)" stroke-width="1.5"></path><path d="M1428.12 532.11L1459.09 697.23" stroke="rgba(61, 52, 206, 1)" stroke-width="1.5"></path><path d="M1428.12 532.11L1578.7 705.04" stroke="rgba(61, 52, 206, 1)" stroke-width="1.5"></path><path d="M1459.09 697.23L1459.09 697.23" stroke="rgba(61, 52, 206, 1)" stroke-width="1.5"></path><path d="M1459.09 697.23L1578.7 705.04" stroke="rgba(61, 52, 206, 1)" stroke-width="1.5"></path><path d="M1602.57 -57.24L1602.57 -57.24" stroke="rgba(61, 52, 206, 1)" stroke-width="1.5"></path><path d="M1602.57 -57.24L1585.42 45.16" stroke="rgba(61, 52, 206, 1)" stroke-width="1.5"></path><path d="M1602.57 -57.24L1445.75 88.61" stroke="rgba(61, 52, 206, 1)" stroke-width="1.5"></path><path d="M1602.57 -57.24L1570.54 205.97" stroke="rgba(61, 52, 206, 1)" stroke-width="1.5"></path><path d="M1602.57 -57.24L1401.64 232.17" stroke="rgba(61, 52, 206, 1)" stroke-width="1.5"></path><path d="M1585.42 45.16L1585.42 45.16" stroke="rgba(61, 52, 206, 1)" stroke-width="1.5"></path><path d="M1585.42 45.16L1570.54 205.97" stroke="rgba(61, 52, 206, 1)" stroke-width="1.5"></path><path d="M1585.42 45.16L1401.64 232.17" stroke="rgba(61, 52, 206, 1)" stroke-width="1.5"></path><path d="M1585.42 45.16L1266.91 111.44" stroke="rgba(61, 52, 206, 1)" stroke-width="1.5"></path><path d="M1570.54 205.97L1570.54 205.97" stroke="rgba(61, 52, 206, 1)" stroke-width="1.5"></path><path d="M1570.54 205.97L1445.75 88.61" stroke="rgba(61, 52, 206, 1)" stroke-width="1.5"></path><path d="M1570.54 205.97L1605.43 384.87" stroke="rgba(61, 52, 206, 1)" stroke-width="1.5"></path><path d="M1605.43 384.87L1605.43 384.87" stroke="rgba(61, 52, 206, 1)" stroke-width="1.5"></path><path d="M1605.43 384.87L1538.17 496.42" stroke="rgba(61, 52, 206, 1)" stroke-width="1.5"></path><path d="M1605.43 384.87L1428.12 532.11" stroke="rgba(61, 52, 206, 1)" stroke-width="1.5"></path><path d="M1538.17 496.42L1538.17 496.42" stroke="rgba(61, 52, 206, 1)" stroke-width="1.5"></path><path d="M1538.17 496.42L1578.7 705.04" stroke="rgba(61, 52, 206, 1)" stroke-width="1.5"></path><path d="M1538.17 496.42L1459.09 697.23" stroke="rgba(61, 52, 206, 1)" stroke-width="1.5"></path><path d="M1578.7 705.04L1578.7 705.04" stroke="rgba(61, 52, 206, 1)" stroke-width="1.5"></path><circle r="5" cx="-54.96" cy="357.02" fill="rgba(61, 52, 206, 1)"></circle><circle r="5" cx="-62.3" cy="642.44" fill="rgba(61, 52, 206, 1)"></circle><circle r="5" cx="64.58" cy="361.35" fill="rgba(61, 52, 206, 1)"></circle><circle r="5" cx="82.7" cy="509.29" fill="rgba(61, 52, 206, 1)"></circle><circle r="5" cx="94.96" cy="697.51" fill="rgba(61, 52, 206, 1)"></circle><circle r="5" cx="249.38" cy="355.3" fill="rgba(61, 52, 206, 1)"></circle><circle r="5" cx="199.38" cy="495.48" fill="rgba(61, 52, 206, 1)"></circle><circle r="5" cx="214.99" cy="678.95" fill="rgba(61, 52, 206, 1)"></circle><circle r="5" cx="385.07" cy="369.83" fill="rgba(61, 52, 206, 1)"></circle><circle r="5" cx="347.75" cy="494.18" fill="rgba(61, 52, 206, 1)"></circle><circle r="5" cx="403.87" cy="702.49" fill="rgba(61, 52, 206, 1)"></circle><circle r="5" cx="489.2" cy="347.13" fill="rgba(61, 52, 206, 1)"></circle><circle r="5" cx="556.53" cy="653.17" fill="rgba(61, 52, 206, 1)"></circle><circle r="5" cx="660.56" cy="371.76" fill="rgba(61, 52, 206, 1)"></circle><circle r="5" cx="704.3" cy="518.04" fill="rgba(61, 52, 206, 1)"></circle><circle r="5" cx="679.1" cy="706.42" fill="rgba(61, 52, 206, 1)"></circle><circle r="5" cx="803.26" cy="257.45" fill="rgba(61, 52, 206, 1)"></circle><circle r="5" cx="848.47" cy="394.04" fill="rgba(61, 52, 206, 1)"></circle><circle r="5" cx="840.83" cy="552.89" fill="rgba(61, 52, 206, 1)"></circle><circle r="5" cx="853.54" cy="710.75" fill="rgba(61, 52, 206, 1)"></circle><circle r="5" cx="957.53" cy="-106.15" fill="rgba(61, 52, 206, 1)"></circle><circle r="5" cx="983.17" cy="104.7" fill="rgba(61, 52, 206, 1)"></circle><circle r="5" cx="992.94" cy="246.64" fill="rgba(61, 52, 206, 1)"></circle><circle r="5" cx="1011.07" cy="372.68" fill="rgba(61, 52, 206, 1)"></circle><circle r="5" cx="959.37" cy="532.93" fill="rgba(61, 52, 206, 1)"></circle><circle r="5" cx="1159.8" cy="109.56" fill="rgba(61, 52, 206, 1)"></circle><circle r="5" cx="1147.28" cy="229.58" fill="rgba(61, 52, 206, 1)"></circle><circle r="5" cx="1121.42" cy="375.39" fill="rgba(61, 52, 206, 1)"></circle><circle r="5" cx="1132.06" cy="506.03" fill="rgba(61, 52, 206, 1)"></circle><circle r="5" cx="1119.55" cy="703.26" fill="rgba(61, 52, 206, 1)"></circle><circle r="5" cx="1266.91" cy="111.44" fill="rgba(61, 52, 206, 1)"></circle><circle r="5" cx="1242.97" cy="228.67" fill="rgba(61, 52, 206, 1)"></circle><circle r="5" cx="1241.27" cy="386.91" fill="rgba(61, 52, 206, 1)"></circle><circle r="5" cx="1283.02" cy="489.67" fill="rgba(61, 52, 206, 1)"></circle><circle r="5" cx="1310.37" cy="654.88" fill="rgba(61, 52, 206, 1)"></circle><circle r="5" cx="1406.87" cy="-90.51" fill="rgba(61, 52, 206, 1)"></circle><circle r="5" cx="1445.75" cy="88.61" fill="rgba(61, 52, 206, 1)"></circle><circle r="5" cx="1401.64" cy="232.17" fill="rgba(61, 52, 206, 1)"></circle><circle r="5" cx="1428.12" cy="532.11" fill="rgba(61, 52, 206, 1)"></circle><circle r="5" cx="1459.09" cy="697.23" fill="rgba(61, 52, 206, 1)"></circle><circle r="5" cx="1602.57" cy="-57.24" fill="rgba(61, 52, 206, 1)"></circle><circle r="5" cx="1585.42" cy="45.16" fill="rgba(61, 52, 206, 1)"></circle><circle r="5" cx="1570.54" cy="205.97" fill="rgba(61, 52, 206, 1)"></circle><circle r="5" cx="1605.43" cy="384.87" fill="rgba(61, 52, 206, 1)"></circle><circle r="5" cx="1538.17" cy="496.42" fill="rgba(61, 52, 206, 1)"></circle><circle r="5" cx="1578.7" cy="705.04" fill="rgba(61, 52, 206, 1)"></circle><path d="M73.21 531.38L73.21 531.38" stroke="hsl(243.5, 61.1%, 65.8%)" stroke-width="1.5"></path><path d="M73.21 531.38L-61.42 511.15" stroke="hsl(243.5, 61.1%, 65.8%)" stroke-width="1.5"></path><path d="M73.21 531.38L209.62 643.41" stroke="hsl(243.5, 61.1%, 65.8%)" stroke-width="1.5"></path><path d="M73.21 531.38L256.09 489.33" stroke="hsl(243.5, 61.1%, 65.8%)" stroke-width="1.5"></path><path d="M519.23 488.38L519.23 488.38" stroke="hsl(243.5, 61.1%, 65.8%)" stroke-width="1.5"></path><path d="M519.23 488.38L553.23 638.9" stroke="hsl(243.5, 61.1%, 65.8%)" stroke-width="1.5"></path><path d="M519.23 488.38L360.43 561.74" stroke="hsl(243.5, 61.1%, 65.8%)" stroke-width="1.5"></path><path d="M803.18 667.78L803.18 667.78" stroke="hsl(243.5, 61.1%, 65.8%)" stroke-width="1.5"></path><path d="M803.18 667.78L706.77 658.21" stroke="hsl(243.5, 61.1%, 65.8%)" stroke-width="1.5"></path><path d="M803.18 667.78L944.32 671.92" stroke="hsl(243.5, 61.1%, 65.8%)" stroke-width="1.5"></path><path d="M803.18 667.78L694.65 550.82" stroke="hsl(243.5, 61.1%, 65.8%)" stroke-width="1.5"></path><path d="M803.18 667.78L845.63 505.93" stroke="hsl(243.5, 61.1%, 65.8%)" stroke-width="1.5"></path><path d="M803.18 667.78L948.47 550.63" stroke="hsl(243.5, 61.1%, 65.8%)" stroke-width="1.5"></path><path d="M973.16 356.88L973.16 356.88" stroke="hsl(243.5, 61.1%, 65.8%)" stroke-width="1.5"></path><path d="M973.16 356.88L792.89 346.21" stroke="hsl(243.5, 61.1%, 65.8%)" stroke-width="1.5"></path><path d="M973.16 356.88L1158.48 357.2" stroke="hsl(243.5, 61.1%, 65.8%)" stroke-width="1.5"></path><path d="M973.16 356.88L948.47 550.63" stroke="hsl(243.5, 61.1%, 65.8%)" stroke-width="1.5"></path><path d="M973.16 356.88L845.63 505.93" stroke="hsl(243.5, 61.1%, 65.8%)" stroke-width="1.5"></path><path d="M973.16 356.88L1153.28 240.96" stroke="hsl(243.5, 61.1%, 65.8%)" stroke-width="1.5"></path><path d="M1296.9 259.32L1296.9 259.32" stroke="hsl(243.5, 61.1%, 65.8%)" stroke-width="1.5"></path><path d="M1296.9 259.32L1299.17 350.17" stroke="hsl(243.5, 61.1%, 65.8%)" stroke-width="1.5"></path><path d="M1296.9 259.32L1153.28 240.96" stroke="hsl(243.5, 61.1%, 65.8%)" stroke-width="1.5"></path><path d="M1296.9 259.32L1396.57 394.99" stroke="hsl(243.5, 61.1%, 65.8%)" stroke-width="1.5"></path><path d="M1296.9 259.32L1158.48 357.2" stroke="hsl(243.5, 61.1%, 65.8%)" stroke-width="1.5"></path><path d="M1296.9 259.32L1461.7 212.15" stroke="hsl(243.5, 61.1%, 65.8%)" stroke-width="1.5"></path><path d="M1579.65 532.88L1579.65 532.88" stroke="hsl(243.5, 61.1%, 65.8%)" stroke-width="1.5"></path><path d="M1579.65 532.88L1547.25 669.79" stroke="hsl(243.5, 61.1%, 65.8%)" stroke-width="1.5"></path><path d="M1579.65 532.88L1583.06 391.69" stroke="hsl(243.5, 61.1%, 65.8%)" stroke-width="1.5"></path><path d="M1579.65 532.88L1390.82 495.96" stroke="hsl(243.5, 61.1%, 65.8%)" stroke-width="1.5"></path><path d="M-61.42 511.15L-61.42 511.15" stroke="hsl(243.5, 61.1%, 65.8%)" stroke-width="1.5"></path><path d="M-61.42 511.15L-56.83 693.6" stroke="hsl(243.5, 61.1%, 65.8%)" stroke-width="1.5"></path><path d="M-61.42 511.15L209.62 643.41" stroke="hsl(243.5, 61.1%, 65.8%)" stroke-width="1.5"></path><path d="M-61.42 511.15L256.09 489.33" stroke="hsl(243.5, 61.1%, 65.8%)" stroke-width="1.5"></path><path d="M-61.42 511.15L360.43 561.74" stroke="hsl(243.5, 61.1%, 65.8%)" stroke-width="1.5"></path><path d="M-61.42 511.15L394.74 656.1" stroke="hsl(243.5, 61.1%, 65.8%)" stroke-width="1.5"></path><path d="M-56.83 693.6L-56.83 693.6" stroke="hsl(243.5, 61.1%, 65.8%)" stroke-width="1.5"></path><path d="M-56.83 693.6L73.21 531.38" stroke="hsl(243.5, 61.1%, 65.8%)" stroke-width="1.5"></path><path d="M-56.83 693.6L209.62 643.41" stroke="hsl(243.5, 61.1%, 65.8%)" stroke-width="1.5"></path><path d="M-56.83 693.6L256.09 489.33" stroke="hsl(243.5, 61.1%, 65.8%)" stroke-width="1.5"></path><path d="M-56.83 693.6L360.43 561.74" stroke="hsl(243.5, 61.1%, 65.8%)" stroke-width="1.5"></path><path d="M256.09 489.33L256.09 489.33" stroke="hsl(243.5, 61.1%, 65.8%)" stroke-width="1.5"></path><path d="M256.09 489.33L360.43 561.74" stroke="hsl(243.5, 61.1%, 65.8%)" stroke-width="1.5"></path><path d="M256.09 489.33L209.62 643.41" stroke="hsl(243.5, 61.1%, 65.8%)" stroke-width="1.5"></path><path d="M256.09 489.33L394.74 656.1" stroke="hsl(243.5, 61.1%, 65.8%)" stroke-width="1.5"></path><path d="M256.09 489.33L519.23 488.38" stroke="hsl(243.5, 61.1%, 65.8%)" stroke-width="1.5"></path><path d="M209.62 643.41L209.62 643.41" stroke="hsl(243.5, 61.1%, 65.8%)" stroke-width="1.5"></path><path d="M209.62 643.41L360.43 561.74" stroke="hsl(243.5, 61.1%, 65.8%)" stroke-width="1.5"></path><path d="M209.62 643.41L394.74 656.1" stroke="hsl(243.5, 61.1%, 65.8%)" stroke-width="1.5"></path><path d="M360.43 561.74L360.43 561.74" stroke="hsl(243.5, 61.1%, 65.8%)" stroke-width="1.5"></path><path d="M360.43 561.74L394.74 656.1" stroke="hsl(243.5, 61.1%, 65.8%)" stroke-width="1.5"></path><path d="M394.74 656.1L394.74 656.1" stroke="hsl(243.5, 61.1%, 65.8%)" stroke-width="1.5"></path><path d="M394.74 656.1L553.23 638.9" stroke="hsl(243.5, 61.1%, 65.8%)" stroke-width="1.5"></path><path d="M553.23 638.9L553.23 638.9" stroke="hsl(243.5, 61.1%, 65.8%)" stroke-width="1.5"></path><path d="M553.23 638.9L706.77 658.21" stroke="hsl(243.5, 61.1%, 65.8%)" stroke-width="1.5"></path><path d="M694.65 550.82L694.65 550.82" stroke="hsl(243.5, 61.1%, 65.8%)" stroke-width="1.5"></path><path d="M694.65 550.82L706.77 658.21" stroke="hsl(243.5, 61.1%, 65.8%)" stroke-width="1.5"></path><path d="M694.65 550.82L845.63 505.93" stroke="hsl(243.5, 61.1%, 65.8%)" stroke-width="1.5"></path><path d="M694.65 550.82L553.23 638.9" stroke="hsl(243.5, 61.1%, 65.8%)" stroke-width="1.5"></path><path d="M694.65 550.82L519.23 488.38" stroke="hsl(243.5, 61.1%, 65.8%)" stroke-width="1.5"></path><path d="M706.77 658.21L706.77 658.21" stroke="hsl(243.5, 61.1%, 65.8%)" stroke-width="1.5"></path><path d="M792.89 346.21L792.89 346.21" stroke="hsl(243.5, 61.1%, 65.8%)" stroke-width="1.5"></path><path d="M792.89 346.21L845.63 505.93" stroke="hsl(243.5, 61.1%, 65.8%)" stroke-width="1.5"></path><path d="M792.89 346.21L694.65 550.82" stroke="hsl(243.5, 61.1%, 65.8%)" stroke-width="1.5"></path><path d="M792.89 346.21L948.47 550.63" stroke="hsl(243.5, 61.1%, 65.8%)" stroke-width="1.5"></path><path d="M792.89 346.21L519.23 488.38" stroke="hsl(243.5, 61.1%, 65.8%)" stroke-width="1.5"></path><path d="M792.89 346.21L803.18 667.78" stroke="hsl(243.5, 61.1%, 65.8%)" stroke-width="1.5"></path><path d="M845.63 505.93L845.63 505.93" stroke="hsl(243.5, 61.1%, 65.8%)" stroke-width="1.5"></path><path d="M845.63 505.93L948.47 550.63" stroke="hsl(243.5, 61.1%, 65.8%)" stroke-width="1.5"></path><path d="M948.47 550.63L948.47 550.63" stroke="hsl(243.5, 61.1%, 65.8%)" stroke-width="1.5"></path><path d="M948.47 550.63L944.32 671.92" stroke="hsl(243.5, 61.1%, 65.8%)" stroke-width="1.5"></path><path d="M948.47 550.63L1098.16 549.4" stroke="hsl(243.5, 61.1%, 65.8%)" stroke-width="1.5"></path><path d="M944.32 671.92L944.32 671.92" stroke="hsl(243.5, 61.1%, 65.8%)" stroke-width="1.5"></path><path d="M1153.28 240.96L1153.28 240.96" stroke="hsl(243.5, 61.1%, 65.8%)" stroke-width="1.5"></path><path d="M1153.28 240.96L1158.48 357.2" stroke="hsl(243.5, 61.1%, 65.8%)" stroke-width="1.5"></path><path d="M1153.28 240.96L1299.17 350.17" stroke="hsl(243.5, 61.1%, 65.8%)" stroke-width="1.5"></path><path d="M1158.48 357.2L1158.48 357.2" stroke="hsl(243.5, 61.1%, 65.8%)" stroke-width="1.5"></path><path d="M1158.48 357.2L1299.17 350.17" stroke="hsl(243.5, 61.1%, 65.8%)" stroke-width="1.5"></path><path d="M1158.48 357.2L1098.16 549.4" stroke="hsl(243.5, 61.1%, 65.8%)" stroke-width="1.5"></path><path d="M1098.16 549.4L1098.16 549.4" stroke="hsl(243.5, 61.1%, 65.8%)" stroke-width="1.5"></path><path d="M1098.16 549.4L1122.97 671" stroke="hsl(243.5, 61.1%, 65.8%)" stroke-width="1.5"></path><path d="M1098.16 549.4L1253.57 560.05" stroke="hsl(243.5, 61.1%, 65.8%)" stroke-width="1.5"></path><path d="M1098.16 549.4L944.32 671.92" stroke="hsl(243.5, 61.1%, 65.8%)" stroke-width="1.5"></path><path d="M1122.97 671L1122.97 671" stroke="hsl(243.5, 61.1%, 65.8%)" stroke-width="1.5"></path><path d="M1122.97 671L1290.48 692.59" stroke="hsl(243.5, 61.1%, 65.8%)" stroke-width="1.5"></path><path d="M1122.97 671L1253.57 560.05" stroke="hsl(243.5, 61.1%, 65.8%)" stroke-width="1.5"></path><path d="M1122.97 671L944.32 671.92" stroke="hsl(243.5, 61.1%, 65.8%)" stroke-width="1.5"></path><path d="M1122.97 671L948.47 550.63" stroke="hsl(243.5, 61.1%, 65.8%)" stroke-width="1.5"></path><path d="M1122.97 671L1158.48 357.2" stroke="hsl(243.5, 61.1%, 65.8%)" stroke-width="1.5"></path><path d="M1260.35 -79.76L1260.35 -79.76" stroke="hsl(243.5, 61.1%, 65.8%)" stroke-width="1.5"></path><path d="M1260.35 -79.76L1451.95 -64.51" stroke="hsl(243.5, 61.1%, 65.8%)" stroke-width="1.5"></path><path d="M1260.35 -79.76L1411.05 77.57" stroke="hsl(243.5, 61.1%, 65.8%)" stroke-width="1.5"></path><path d="M1260.35 -79.76L1566.64 -106.35" stroke="hsl(243.5, 61.1%, 65.8%)" stroke-width="1.5"></path><path d="M1260.35 -79.76L1153.28 240.96" stroke="hsl(243.5, 61.1%, 65.8%)" stroke-width="1.5"></path><path d="M1260.35 -79.76L1296.9 259.32" stroke="hsl(243.5, 61.1%, 65.8%)" stroke-width="1.5"></path><path d="M1260.35 -79.76L1461.7 212.15" stroke="hsl(243.5, 61.1%, 65.8%)" stroke-width="1.5"></path><path d="M1299.17 350.17L1299.17 350.17" stroke="hsl(243.5, 61.1%, 65.8%)" stroke-width="1.5"></path><path d="M1299.17 350.17L1396.57 394.99" stroke="hsl(243.5, 61.1%, 65.8%)" stroke-width="1.5"></path><path d="M1299.17 350.17L1390.82 495.96" stroke="hsl(243.5, 61.1%, 65.8%)" stroke-width="1.5"></path><path d="M1253.57 560.05L1253.57 560.05" stroke="hsl(243.5, 61.1%, 65.8%)" stroke-width="1.5"></path><path d="M1253.57 560.05L1290.48 692.59" stroke="hsl(243.5, 61.1%, 65.8%)" stroke-width="1.5"></path><path d="M1253.57 560.05L1390.82 495.96" stroke="hsl(243.5, 61.1%, 65.8%)" stroke-width="1.5"></path><path d="M1253.57 560.05L1299.17 350.17" stroke="hsl(243.5, 61.1%, 65.8%)" stroke-width="1.5"></path><path d="M1253.57 560.05L1396.57 394.99" stroke="hsl(243.5, 61.1%, 65.8%)" stroke-width="1.5"></path><path d="M1290.48 692.59L1290.48 692.59" stroke="hsl(243.5, 61.1%, 65.8%)" stroke-width="1.5"></path><path d="M1290.48 692.59L1452.6 707.14" stroke="hsl(243.5, 61.1%, 65.8%)" stroke-width="1.5"></path><path d="M1451.95 -64.51L1451.95 -64.51" stroke="hsl(243.5, 61.1%, 65.8%)" stroke-width="1.5"></path><path d="M1451.95 -64.51L1566.64 -106.35" stroke="hsl(243.5, 61.1%, 65.8%)" stroke-width="1.5"></path><path d="M1451.95 -64.51L1411.05 77.57" stroke="hsl(243.5, 61.1%, 65.8%)" stroke-width="1.5"></path><path d="M1411.05 77.57L1411.05 77.57" stroke="hsl(243.5, 61.1%, 65.8%)" stroke-width="1.5"></path><path d="M1411.05 77.57L1461.7 212.15" stroke="hsl(243.5, 61.1%, 65.8%)" stroke-width="1.5"></path><path d="M1411.05 77.57L1612.11 81.14" stroke="hsl(243.5, 61.1%, 65.8%)" stroke-width="1.5"></path><path d="M1411.05 77.57L1296.9 259.32" stroke="hsl(243.5, 61.1%, 65.8%)" stroke-width="1.5"></path><path d="M1411.05 77.57L1584.58 204.58" stroke="hsl(243.5, 61.1%, 65.8%)" stroke-width="1.5"></path><path d="M1461.7 212.15L1461.7 212.15" stroke="hsl(243.5, 61.1%, 65.8%)" stroke-width="1.5"></path><path d="M1461.7 212.15L1584.58 204.58" stroke="hsl(243.5, 61.1%, 65.8%)" stroke-width="1.5"></path><path d="M1461.7 212.15L1396.57 394.99" stroke="hsl(243.5, 61.1%, 65.8%)" stroke-width="1.5"></path><path d="M1461.7 212.15L1612.11 81.14" stroke="hsl(243.5, 61.1%, 65.8%)" stroke-width="1.5"></path><path d="M1461.7 212.15L1299.17 350.17" stroke="hsl(243.5, 61.1%, 65.8%)" stroke-width="1.5"></path><path d="M1396.57 394.99L1396.57 394.99" stroke="hsl(243.5, 61.1%, 65.8%)" stroke-width="1.5"></path><path d="M1396.57 394.99L1390.82 495.96" stroke="hsl(243.5, 61.1%, 65.8%)" stroke-width="1.5"></path><path d="M1390.82 495.96L1390.82 495.96" stroke="hsl(243.5, 61.1%, 65.8%)" stroke-width="1.5"></path><path d="M1390.82 495.96L1583.06 391.69" stroke="hsl(243.5, 61.1%, 65.8%)" stroke-width="1.5"></path><path d="M1452.6 707.14L1452.6 707.14" stroke="hsl(243.5, 61.1%, 65.8%)" stroke-width="1.5"></path><path d="M1452.6 707.14L1547.25 669.79" stroke="hsl(243.5, 61.1%, 65.8%)" stroke-width="1.5"></path><path d="M1452.6 707.14L1579.65 532.88" stroke="hsl(243.5, 61.1%, 65.8%)" stroke-width="1.5"></path><path d="M1452.6 707.14L1390.82 495.96" stroke="hsl(243.5, 61.1%, 65.8%)" stroke-width="1.5"></path><path d="M1452.6 707.14L1253.57 560.05" stroke="hsl(243.5, 61.1%, 65.8%)" stroke-width="1.5"></path><path d="M1452.6 707.14L1396.57 394.99" stroke="hsl(243.5, 61.1%, 65.8%)" stroke-width="1.5"></path><path d="M1566.64 -106.35L1566.64 -106.35" stroke="hsl(243.5, 61.1%, 65.8%)" stroke-width="1.5"></path><path d="M1566.64 -106.35L1612.11 81.14" stroke="hsl(243.5, 61.1%, 65.8%)" stroke-width="1.5"></path><path d="M1566.64 -106.35L1411.05 77.57" stroke="hsl(243.5, 61.1%, 65.8%)" stroke-width="1.5"></path><path d="M1566.64 -106.35L1584.58 204.58" stroke="hsl(243.5, 61.1%, 65.8%)" stroke-width="1.5"></path><path d="M1612.11 81.14L1612.11 81.14" stroke="hsl(243.5, 61.1%, 65.8%)" stroke-width="1.5"></path><path d="M1612.11 81.14L1584.58 204.58" stroke="hsl(243.5, 61.1%, 65.8%)" stroke-width="1.5"></path><path d="M1612.11 81.14L1451.95 -64.51" stroke="hsl(243.5, 61.1%, 65.8%)" stroke-width="1.5"></path><path d="M1584.58 204.58L1584.58 204.58" stroke="hsl(243.5, 61.1%, 65.8%)" stroke-width="1.5"></path><path d="M1584.58 204.58L1583.06 391.69" stroke="hsl(243.5, 61.1%, 65.8%)" stroke-width="1.5"></path><path d="M1584.58 204.58L1396.57 394.99" stroke="hsl(243.5, 61.1%, 65.8%)" stroke-width="1.5"></path><path d="M1584.58 204.58L1296.9 259.32" stroke="hsl(243.5, 61.1%, 65.8%)" stroke-width="1.5"></path><path d="M1583.06 391.69L1583.06 391.69" stroke="hsl(243.5, 61.1%, 65.8%)" stroke-width="1.5"></path><path d="M1547.25 669.79L1547.25 669.79" stroke="hsl(243.5, 61.1%, 65.8%)" stroke-width="1.5"></path><circle r="25" cx="73.21" cy="531.38" fill="url(&quot;#SvgjsRadialGradient1011&quot;)"></circle><circle r="25" cx="519.23" cy="488.38" fill="url(&quot;#SvgjsRadialGradient1011&quot;)"></circle><circle r="25" cx="803.18" cy="667.78" fill="url(&quot;#SvgjsRadialGradient1011&quot;)"></circle><circle r="25" cx="973.16" cy="356.88" fill="url(&quot;#SvgjsRadialGradient1011&quot;)"></circle><circle r="25" cx="1296.9" cy="259.32" fill="url(&quot;#SvgjsRadialGradient1011&quot;)"></circle><circle r="25" cx="1579.65" cy="532.88" fill="url(&quot;#SvgjsRadialGradient1011&quot;)"></circle><circle r="5" cx="-61.42" cy="511.15" fill="#9e9ae7"></circle><circle r="5" cx="-56.83" cy="693.6" fill="#9e9ae7"></circle><circle r="5" cx="256.09" cy="489.33" fill="#9e9ae7"></circle><circle r="5" cx="209.62" cy="643.41" fill="#9e9ae7"></circle><circle r="5" cx="360.43" cy="561.74" fill="#9e9ae7"></circle><circle r="5" cx="394.74" cy="656.1" fill="#9e9ae7"></circle><circle r="5" cx="553.23" cy="638.9" fill="#9e9ae7"></circle><circle r="5" cx="694.65" cy="550.82" fill="#9e9ae7"></circle><circle r="5" cx="706.77" cy="658.21" fill="#9e9ae7"></circle><circle r="5" cx="792.89" cy="346.21" fill="#9e9ae7"></circle><circle r="5" cx="845.63" cy="505.93" fill="#9e9ae7"></circle><circle r="5" cx="948.47" cy="550.63" fill="#9e9ae7"></circle><circle r="5" cx="944.32" cy="671.92" fill="#9e9ae7"></circle><circle r="5" cx="1153.28" cy="240.96" fill="#9e9ae7"></circle><circle r="5" cx="1158.48" cy="357.2" fill="#9e9ae7"></circle><circle r="5" cx="1098.16" cy="549.4" fill="#9e9ae7"></circle><circle r="5" cx="1122.97" cy="671" fill="#9e9ae7"></circle><circle r="5" cx="1260.35" cy="-79.76" fill="#9e9ae7"></circle><circle r="5" cx="1299.17" cy="350.17" fill="#9e9ae7"></circle><circle r="5" cx="1253.57" cy="560.05" fill="#9e9ae7"></circle><circle r="5" cx="1290.48" cy="692.59" fill="#9e9ae7"></circle><circle r="5" cx="1451.95" cy="-64.51" fill="#9e9ae7"></circle><circle r="5" cx="1411.05" cy="77.57" fill="#9e9ae7"></circle><circle r="5" cx="1461.7" cy="212.15" fill="#9e9ae7"></circle><circle r="5" cx="1396.57" cy="394.99" fill="#9e9ae7"></circle><circle r="5" cx="1390.82" cy="495.96" fill="#9e9ae7"></circle><circle r="5" cx="1452.6" cy="707.14" fill="#9e9ae7"></circle><circle r="5" cx="1566.64" cy="-106.35" fill="#9e9ae7"></circle><circle r="5" cx="1612.11" cy="81.14" fill="#9e9ae7"></circle><circle r="5" cx="1584.58" cy="204.58" fill="#9e9ae7"></circle><circle r="5" cx="1583.06" cy="391.69" fill="#9e9ae7"></circle><circle r="5" cx="1547.25" cy="669.79" fill="#9e9ae7"></circle></g><defs><mask id="SvgjsMask1010"><rect width="1440" height="560" fill="#ffffff"></rect></mask><radialGradient id="SvgjsRadialGradient1011"><stop stop-color="#ffffff" offset="0.1"></stop><stop stop-color="rgba(61, 52, 206, 1)" offset="0.2"></stop><stop stop-color="rgba(61, 52, 206, 0)" offset="1"></stop></radialGradient></defs></svg>